# Blender v2.81 (sub 16) OBJ File: 'Crate.blend'
# www.blender.org
mtllib WoodenCrate.mtl
o WoodenCrate
v -1.000000 0.000000 1.000000
v -1.000000 2.000000 1.000000
v -1.000000 0.000000 -1.000000
v -1.000000 2.000000 -1.000000
v 1.000000 0.000000 1.000000
v 1.000000 2.000000 1.000000
v 1.000000 0.000000 -1.000000
v 1.000000 2.000000 -1.000000
v -1.000000 0.214834 0.785166
v -1.000000 1.785166 0.785166
v -1.000000 1.785166 -0.785166
v -1.000000 0.214834 -0.785166
v -0.785166 0.214834 -1.000000
v -0.785166 1.785166 -1.000000
v 0.785166 1.785166 -1.000000
v 0.785166 0.214834 -1.000000
v 1.000000 0.214834 -0.785166
v 1.000000 1.785166 -0.785166
v 1.000000 1.785166 0.785166
v 1.000000 0.214834 0.785166
v 0.785166 0.214834 1.000000
v 0.785166 1.785166 1.000000
v -0.785166 1.785166 1.000000
v -0.785166 0.214834 1.000000
v -0.785166 0.000000 -0.785166
v 0.785166 0.000000 -0.785166
v 0.785166 0.000000 0.785166
v -0.785166 0.000000 0.785166
v 0.785166 2.000000 -0.785166
v -0.785166 2.000000 -0.785166
v -0.785166 2.000000 0.785166
v 0.785166 2.000000 0.785166
v -0.899359 0.214834 0.785166
v -0.899359 1.785166 0.785166
v -0.899359 1.785166 -0.785166
v -0.899359 0.214834 -0.785166
v -0.785166 0.214834 -0.899359
v -0.785166 1.785166 -0.899359
v 0.785166 1.785166 -0.899359
v 0.785166 0.214834 -0.899359
v 0.899359 0.214834 -0.785166
v 0.899359 1.785166 -0.785166
v 0.899359 1.785166 0.785166
v 0.899359 0.214834 0.785166
v 0.785166 0.214834 0.899359
v 0.785166 1.785166 0.899359
v -0.785166 1.785166 0.899359
v -0.785166 0.214834 0.899359
v -0.785166 0.100641 -0.785166
v 0.785166 0.100641 -0.785166
v 0.785166 0.100641 0.785166
v -0.785166 0.100641 0.785166
v 0.785166 1.899359 -0.785166
v -0.785166 1.899359 -0.785166
v -0.785166 1.899359 0.785166
v 0.785166 1.899359 0.785166
v 0.785166 0.214834 1.000000
v -0.785166 1.785166 1.000000
v 0.785166 0.214834 0.899359
v -0.785166 1.785166 0.899359
v -0.628132 1.628133 0.899359
v -0.628132 1.628133 1.000000
v 0.643836 0.356164 0.899359
v 0.643836 0.356164 1.000000
v -0.785166 1.628133 0.899359
v -0.785166 1.628133 1.000000
v -0.628132 1.785166 0.899359
v -0.628132 1.785166 1.000000
v 0.643836 0.214834 0.899359
v 0.643836 0.214834 1.000000
v 0.785166 0.356164 0.899359
v 0.785166 0.356164 1.000000
v -0.785166 0.214834 -0.899359
v 0.785166 1.785166 -0.899359
v -0.785166 0.214834 -1.000000
v 0.785166 1.785166 -1.000000
v 0.628132 1.628133 -1.000000
v 0.628132 1.628133 -0.899359
v -0.643836 0.356164 -1.000000
v -0.643836 0.356164 -0.899359
v 0.628132 1.785166 -1.000000
v 0.628132 1.785166 -0.899359
v 0.785165 1.628133 -1.000000
v 0.785165 1.628133 -0.899359
v -0.785166 0.356164 -1.000000
v -0.785166 0.356164 -0.899359
v -0.643836 0.214834 -1.000000
v -0.643836 0.214834 -0.899359
v 1.000000 1.785166 -0.785166
v 1.000000 0.214834 0.785166
v 0.899359 1.785166 -0.785166
v 0.899359 0.214834 0.785166
v 0.899359 0.371867 0.628132
v 1.000000 0.371867 0.628132
v 0.899359 1.643836 -0.643836
v 1.000000 1.643836 -0.643836
v 0.899359 0.214834 0.628132
v 1.000000 0.214834 0.628132
v 0.899359 0.371867 0.785165
v 1.000000 0.371867 0.785165
v 0.899359 1.643836 -0.785166
v 1.000000 1.643836 -0.785166
v 0.899359 1.785166 -0.643836
v 1.000000 1.785166 -0.643836
v -0.899359 0.214834 -0.785166
v -0.899360 1.785166 0.785166
v -1.000000 0.214834 -0.785166
v -1.000000 1.785166 0.785166
v -1.000000 1.628132 0.628133
v -0.899360 1.628132 0.628133
v -1.000000 0.356164 -0.643836
v -0.899359 0.356164 -0.643836
v -1.000000 1.628132 0.785166
v -0.899360 1.628132 0.785166
v -1.000000 1.785165 0.628133
v -0.899360 1.785165 0.628133
v -1.000000 0.214834 -0.643836
v -0.899359 0.214834 -0.643836
v -1.000000 0.356164 -0.785165
v -0.899359 0.356164 -0.785165
v -0.785166 -0.000000 -0.785165
v 0.785166 0.000000 0.785166
v -0.785166 0.100641 -0.785165
v 0.785166 0.100641 0.785166
v 0.628133 0.100641 0.628133
v 0.628133 0.000000 0.628133
v -0.643836 0.100641 -0.643836
v -0.643836 -0.000000 -0.643836
v 0.628133 0.100641 0.785166
v 0.628133 0.000000 0.785166
v 0.785165 0.100641 0.628133
v 0.785165 0.000000 0.628133
v -0.785166 0.100641 -0.643836
v -0.785166 -0.000000 -0.643836
v -0.643836 0.100640 -0.785165
v -0.643836 -0.000000 -0.785165
v -0.785166 1.899359 0.785166
v 0.785166 1.899359 -0.785165
v -0.785166 2.000000 0.785166
v 0.785166 2.000000 -0.785165
v 0.628133 2.000000 -0.628132
v 0.628133 1.899359 -0.628132
v -0.643836 2.000000 0.643836
v -0.643836 1.899359 0.643836
v 0.785166 2.000000 -0.628132
v 0.785166 1.899359 -0.628132
v 0.628133 2.000000 -0.785165
v 0.628133 1.899359 -0.785165
v -0.643836 2.000000 0.785166
v -0.643836 1.899359 0.785166
v -0.785166 2.000000 0.643836
v -0.785166 1.899359 0.643836
vt 0.465362 0.160694
vt 0.465362 0.300960
vt 0.450295 0.285893
vt 0.450295 0.175761
vt 0.325096 0.300960
vt 0.340163 0.285893
vt 0.325096 0.160694
vt 0.340163 0.175761
vt 0.310029 0.285893
vt 0.310029 0.175761
vt 0.184830 0.300960
vt 0.199897 0.285893
vt 0.184830 0.160694
vt 0.199897 0.175761
vt 0.169763 0.285893
vt 0.169763 0.175761
vt 0.044564 0.300960
vt 0.059631 0.285893
vt 0.044564 0.160694
vt 0.059631 0.175761
vt 0.605627 0.160694
vt 0.605627 0.300960
vt 0.590560 0.285893
vt 0.590560 0.175761
vt 0.480429 0.285893
vt 0.480429 0.175761
vt 0.199897 0.145627
vt 0.310029 0.145627
vt 0.184830 0.020429
vt 0.199897 0.035495
vt 0.325096 0.020428
vt 0.310029 0.035495
vt 0.310029 0.316027
vt 0.199897 0.316027
vt 0.325096 0.441226
vt 0.310029 0.426159
vt 0.184830 0.441226
vt 0.199897 0.426159
vt 0.051622 0.592348
vt 0.051623 0.482216
vt 0.161754 0.482216
vt 0.161754 0.592348
vt 0.044564 0.482216
vt 0.044564 0.592348
vt 0.161754 0.475157
vt 0.051623 0.475157
vt 0.168813 0.592348
vt 0.168813 0.482216
vt 0.051622 0.599406
vt 0.161754 0.599406
vt 0.367982 0.482216
vt 0.478114 0.482216
vt 0.478114 0.592348
vt 0.367982 0.592348
vt 0.478114 0.475157
vt 0.367982 0.475157
vt 0.485172 0.592348
vt 0.485172 0.482216
vt 0.367982 0.599406
vt 0.478114 0.599406
vt 0.360924 0.482216
vt 0.360924 0.592348
vt 0.636294 0.482216
vt 0.636294 0.592348
vt 0.526162 0.592348
vt 0.526162 0.482216
vt 0.643352 0.592348
vt 0.643352 0.482216
vt 0.526162 0.599406
vt 0.636294 0.599406
vt 0.519104 0.482216
vt 0.519104 0.592348
vt 0.636294 0.475157
vt 0.526162 0.475157
vt 0.963164 0.482216
vt 0.963164 0.592348
vt 0.853032 0.592348
vt 0.853032 0.482216
vt 0.970222 0.592348
vt 0.970222 0.482216
vt 0.853032 0.599406
vt 0.963164 0.599406
vt 0.845974 0.482216
vt 0.845974 0.592348
vt 0.963164 0.475158
vt 0.853032 0.475158
vt 0.209802 0.482216
vt 0.319934 0.482216
vt 0.319934 0.592348
vt 0.209802 0.592348
vt 0.319934 0.475157
vt 0.209802 0.475157
vt 0.326993 0.592348
vt 0.326993 0.482216
vt 0.209802 0.599406
vt 0.319934 0.599406
vt 0.202744 0.482216
vt 0.202744 0.592348
vt 0.804984 0.592348
vt 0.694852 0.592348
vt 0.694852 0.482216
vt 0.804984 0.482216
vt 0.694852 0.599406
vt 0.804984 0.599406
vt 0.687794 0.482216
vt 0.687794 0.592348
vt 0.804984 0.475158
vt 0.694852 0.475158
vt 0.812042 0.592348
vt 0.812042 0.482216
vt 0.302067 0.951171
vt 0.287260 0.951171
vt 0.287260 0.655464
vt 0.302067 0.655464
vt 0.239780 0.950827
vt 0.243048 0.655137
vt 0.257854 0.655301
vt 0.254586 0.950991
vt 0.302067 0.974275
vt 0.287260 0.974275
vt 0.254330 0.974093
vt 0.239524 0.973930
vt 0.243277 0.634345
vt 0.258084 0.634508
vt 0.287260 0.634670
vt 0.302067 0.634670
vt 0.272476 0.670085
vt 0.271013 0.934744
vt 0.228103 0.669595
vt 0.223716 0.934221
vt 0.207110 0.950285
vt 0.213645 0.654650
vt 0.270833 0.967418
vt 0.223174 0.966891
vt 0.272638 0.640679
vt 0.228590 0.640193
vt 0.634346 0.951170
vt 0.619539 0.951170
vt 0.619539 0.655463
vt 0.634346 0.655463
vt 0.572060 0.950826
vt 0.575326 0.655137
vt 0.590132 0.655301
vt 0.586865 0.950990
vt 0.634346 0.974274
vt 0.619539 0.974274
vt 0.586610 0.974091
vt 0.571805 0.973928
vt 0.575555 0.634345
vt 0.590362 0.634508
vt 0.619538 0.634669
vt 0.634346 0.634669
vt 0.604754 0.670085
vt 0.603292 0.934743
vt 0.560381 0.669595
vt 0.555996 0.934221
vt 0.539390 0.950285
vt 0.545923 0.654650
vt 0.603112 0.967417
vt 0.555454 0.966890
vt 0.604916 0.640679
vt 0.560868 0.640192
vt 0.960224 0.952056
vt 0.945417 0.952056
vt 0.945418 0.656348
vt 0.960224 0.656348
vt 0.897937 0.951712
vt 0.901205 0.656022
vt 0.916012 0.656185
vt 0.912743 0.951875
vt 0.960224 0.975160
vt 0.945417 0.975160
vt 0.912488 0.974978
vt 0.897681 0.974815
vt 0.901435 0.635229
vt 0.916242 0.635393
vt 0.945418 0.635555
vt 0.960224 0.635555
vt 0.930633 0.670970
vt 0.929170 0.935629
vt 0.886261 0.670479
vt 0.881873 0.935106
vt 0.865267 0.951170
vt 0.871803 0.655534
vt 0.928990 0.968303
vt 0.881331 0.967776
vt 0.930796 0.641564
vt 0.886748 0.641077
vt 0.119497 0.950989
vt 0.104690 0.950989
vt 0.104690 0.655282
vt 0.119497 0.655282
vt 0.057209 0.950645
vt 0.060477 0.654955
vt 0.075284 0.655119
vt 0.072016 0.950809
vt 0.119497 0.974093
vt 0.104690 0.974093
vt 0.071760 0.973911
vt 0.056954 0.973748
vt 0.060707 0.634163
vt 0.075513 0.634326
vt 0.104690 0.634488
vt 0.119497 0.634488
vt 0.089905 0.669903
vt 0.088443 0.934562
vt 0.045532 0.669413
vt 0.041145 0.934039
vt 0.024540 0.950103
vt 0.031075 0.654468
vt 0.088262 0.967236
vt 0.040604 0.966709
vt 0.090068 0.640497
vt 0.046020 0.640011
vt 0.468207 0.951171
vt 0.453399 0.951171
vt 0.453399 0.655464
vt 0.468207 0.655464
vt 0.405920 0.950828
vt 0.409187 0.655137
vt 0.423993 0.655301
vt 0.420725 0.950991
vt 0.468207 0.974276
vt 0.453399 0.974276
vt 0.420470 0.974093
vt 0.405665 0.973929
vt 0.409417 0.634345
vt 0.424223 0.634508
vt 0.453399 0.634670
vt 0.468207 0.634670
vt 0.438615 0.670085
vt 0.437153 0.934744
vt 0.394242 0.669595
vt 0.389856 0.934222
vt 0.373251 0.950286
vt 0.379784 0.654650
vt 0.436972 0.967418
vt 0.389314 0.966891
vt 0.438778 0.640679
vt 0.394729 0.640193
vt 0.794083 0.952056
vt 0.779276 0.952056
vt 0.779277 0.656348
vt 0.794083 0.656348
vt 0.731796 0.951712
vt 0.735064 0.656022
vt 0.749871 0.656185
vt 0.746602 0.951875
vt 0.794083 0.975160
vt 0.779276 0.975160
vt 0.746347 0.974978
vt 0.731540 0.974815
vt 0.735294 0.635229
vt 0.750101 0.635393
vt 0.779277 0.635555
vt 0.794083 0.635555
vt 0.764493 0.670970
vt 0.763029 0.935629
vt 0.720120 0.670479
vt 0.715732 0.935106
vt 0.699126 0.951170
vt 0.705662 0.655534
vt 0.762849 0.968303
vt 0.715190 0.967776
vt 0.764655 0.641564
vt 0.720607 0.641077
vn -1.0000 0.0000 0.0000
vn 0.0000 0.0000 -1.0000
vn 1.0000 0.0000 0.0000
vn 0.0000 0.0000 1.0000
vn 0.0000 -1.0000 0.0000
vn 0.0000 1.0000 -0.0000
vn 0.7110 0.7032 0.0000
vn -0.7032 -0.7110 0.0000
vn 0.7032 -0.7110 0.0000
vn -0.7110 0.7032 0.0000
vn 0.0000 0.7110 0.7032
vn 0.0000 -0.7032 -0.7110
vn 0.0000 0.7032 -0.7110
vn 0.0000 -0.7110 0.7032
vn 0.7032 0.0000 -0.7110
vn -0.7110 0.0000 0.7032
vn -0.7110 0.0000 -0.7032
vn 0.7032 0.0000 0.7110
usemtl WoodenCrate-Material
s 1
f 1/1/1 2/2/1 10/3/1 9/4/1
f 2/2/1 4/5/1 11/6/1 10/3/1
f 4/5/1 3/7/1 12/8/1 11/6/1
f 3/7/1 1/1/1 9/4/1 12/8/1
f 3/7/2 4/5/2 14/9/2 13/10/2
f 4/5/2 8/11/2 15/12/2 14/9/2
f 8/11/2 7/13/2 16/14/2 15/12/2
f 7/13/2 3/7/2 13/10/2 16/14/2
f 7/13/3 8/11/3 18/15/3 17/16/3
f 8/11/3 6/17/3 19/18/3 18/15/3
f 6/17/3 5/19/3 20/20/3 19/18/3
f 5/19/3 7/13/3 17/16/3 20/20/3
f 5/21/4 6/22/4 22/23/4 21/24/4
f 6/22/4 2/2/4 23/25/4 22/23/4
f 2/2/4 1/1/4 24/26/4 23/25/4
f 1/1/4 5/21/4 21/24/4 24/26/4
f 3/7/5 7/13/5 26/27/5 25/28/5
f 7/13/5 5/29/5 27/30/5 26/27/5
f 5/29/5 1/31/5 28/32/5 27/30/5
f 1/31/5 3/7/5 25/28/5 28/32/5
f 8/11/6 4/5/6 30/33/6 29/34/6
f 4/5/6 2/35/6 31/36/6 30/33/6
f 2/35/6 6/37/6 32/38/6 31/36/6
f 6/37/6 8/11/6 29/34/6 32/38/6
f 33/39/1 34/40/1 35/41/1 36/42/1
f 10/43/2 34/40/2 33/39/2 9/44/2
f 11/45/5 35/41/5 34/40/5 10/46/5
f 12/47/4 36/42/4 35/41/4 11/48/4
f 9/49/6 33/39/6 36/42/6 12/50/6
f 37/51/2 38/52/2 39/53/2 40/54/2
f 14/55/3 38/52/3 37/51/3 13/56/3
f 15/57/5 39/53/5 38/52/5 14/58/5
f 16/59/1 40/54/1 39/53/1 15/60/1
f 13/61/6 37/51/6 40/54/6 16/62/6
f 41/63/3 42/64/3 43/65/3 44/66/3
f 18/67/4 42/64/4 41/63/4 17/68/4
f 19/69/5 43/65/5 42/64/5 18/70/5
f 20/71/2 44/66/2 43/65/2 19/72/2
f 17/73/6 41/63/6 44/66/6 20/74/6
f 45/75/4 46/76/4 47/77/4 48/78/4
f 22/79/1 46/76/1 45/75/1 21/80/1
f 23/81/5 47/77/5 46/76/5 22/82/5
f 24/83/3 48/78/3 47/77/3 23/84/3
f 21/85/6 45/75/6 48/78/6 24/86/6
f 49/87/5 50/88/5 51/89/5 52/90/5
f 26/91/4 50/88/4 49/87/4 25/92/4
f 27/93/1 51/89/1 50/88/1 26/94/1
f 28/95/2 52/90/2 51/89/2 27/96/2
f 25/97/3 49/87/3 52/90/3 28/98/3
f 53/99/6 54/100/6 55/101/6 56/102/6
f 30/103/4 54/100/4 53/99/4 29/104/4
f 31/105/3 55/101/3 54/100/3 30/106/3
f 32/107/2 56/102/2 55/101/2 31/108/2
f 29/109/1 53/99/1 56/102/1 32/110/1
f 67/111/7 68/112/7 72/113/7 71/114/7
f 65/115/8 69/116/8 70/117/8 66/118/8
f 67/111/6 60/119/6 58/120/6 68/112/6
f 65/115/1 66/118/1 58/121/1 60/122/1
f 59/123/5 57/124/5 70/117/5 69/116/5
f 71/114/3 72/113/3 57/125/3 59/126/3
f 64/127/4 62/128/4 66/118/4 70/117/4
f 68/112/4 62/128/4 64/127/4 72/113/4
f 63/129/2 61/130/2 67/131/2 71/132/2
f 69/116/2 65/115/2 61/130/2 63/129/2
f 62/128/4 68/112/4 58/133/4 66/118/4
f 61/130/2 65/115/2 60/134/2 67/131/2
f 57/135/4 72/113/4 64/127/4 70/117/4
f 69/116/2 63/129/2 71/132/2 59/136/2
f 83/137/9 84/138/9 88/139/9 87/140/9
f 81/141/10 85/142/10 86/143/10 82/144/10
f 83/137/3 76/145/3 74/146/3 84/138/3
f 81/141/6 82/144/6 74/147/6 76/148/6
f 75/149/1 73/150/1 86/143/1 85/142/1
f 87/140/5 88/139/5 73/151/5 75/152/5
f 80/153/4 78/154/4 82/144/4 86/143/4
f 84/138/4 78/154/4 80/153/4 88/139/4
f 79/155/2 77/156/2 83/157/2 87/158/2
f 85/142/2 81/141/2 77/156/2 79/155/2
f 78/154/4 84/138/4 74/159/4 82/144/4
f 77/156/2 81/141/2 76/160/2 83/157/2
f 73/161/4 88/139/4 80/153/4 86/143/4
f 85/142/2 79/155/2 87/158/2 75/162/2
f 99/163/11 100/164/11 104/165/11 103/166/11
f 97/167/12 101/168/12 102/169/12 98/170/12
f 99/163/4 92/171/4 90/172/4 100/164/4
f 97/167/5 98/170/5 90/173/5 92/174/5
f 91/175/2 89/176/2 102/169/2 101/168/2
f 103/166/6 104/165/6 89/177/6 91/178/6
f 96/179/3 94/180/3 98/170/3 102/169/3
f 100/164/3 94/180/3 96/179/3 104/165/3
f 95/181/1 93/182/1 99/183/1 103/184/1
f 101/168/1 97/167/1 93/182/1 95/181/1
f 94/180/3 100/164/3 90/185/3 98/170/3
f 93/182/1 97/167/1 92/186/1 99/183/1
f 89/187/3 104/165/3 96/179/3 102/169/3
f 101/168/1 95/181/1 103/184/1 91/188/1
f 115/189/13 116/190/13 120/191/13 119/192/13
f 113/193/14 117/194/14 118/195/14 114/196/14
f 115/189/6 108/197/6 106/198/6 116/190/6
f 113/193/4 114/196/4 106/199/4 108/200/4
f 107/201/5 105/202/5 118/195/5 117/194/5
f 119/192/2 120/191/2 105/203/2 107/204/2
f 112/205/3 110/206/3 114/196/3 118/195/3
f 116/190/3 110/206/3 112/205/3 120/191/3
f 111/207/1 109/208/1 115/209/1 119/210/1
f 117/194/1 113/193/1 109/208/1 111/207/1
f 110/206/3 116/190/3 106/211/3 114/196/3
f 109/208/1 113/193/1 108/212/1 115/209/1
f 105/213/3 120/191/3 112/205/3 118/195/3
f 117/194/1 111/207/1 119/210/1 107/214/1
f 131/215/15 132/216/15 136/217/15 135/218/15
f 129/219/16 133/220/16 134/221/16 130/222/16
f 131/215/3 124/223/3 122/224/3 132/216/3
f 129/219/4 130/222/4 122/225/4 124/226/4
f 123/227/1 121/228/1 134/221/1 133/220/1
f 135/218/2 136/217/2 121/229/2 123/230/2
f 128/231/5 126/232/5 130/222/5 134/221/5
f 132/216/5 126/232/5 128/231/5 136/217/5
f 127/233/6 125/234/6 131/235/6 135/236/6
f 133/220/6 129/219/6 125/234/6 127/233/6
f 126/232/5 132/216/5 122/237/5 130/222/5
f 125/234/6 129/219/6 124/238/6 131/235/6
f 121/239/5 136/217/5 128/231/5 134/221/5
f 133/220/6 127/233/6 135/236/6 123/240/6
f 147/241/17 148/242/17 152/243/17 151/244/17
f 145/245/18 149/246/18 150/247/18 146/248/18
f 147/241/2 140/249/2 138/250/2 148/242/2
f 145/245/3 146/248/3 138/251/3 140/252/3
f 139/253/4 137/254/4 150/247/4 149/246/4
f 151/244/1 152/243/1 137/255/1 139/256/1
f 144/257/5 142/258/5 146/248/5 150/247/5
f 148/242/5 142/258/5 144/257/5 152/243/5
f 143/259/6 141/260/6 147/261/6 151/262/6
f 149/246/6 145/245/6 141/260/6 143/259/6
f 142/258/5 148/242/5 138/263/5 146/248/5
f 141/260/6 145/245/6 140/264/6 147/261/6
f 137/265/5 152/243/5 144/257/5 150/247/5
f 149/246/6 143/259/6 151/262/6 139/266/6
